<?xml version="1.0" encoding="UTF-8"?>
<svg width="42px" height="42px" viewBox="0 0 42 42" version="1.1" xmlns="http://www.w3.org/2000/svg" xmlns:xlink="http://www.w3.org/1999/xlink">
    <!-- Generator: Sketch 50.2 (55047) - http://www.bohemiancoding.com/sketch -->
    <title>happy-sun</title>
    <desc>Created with Sketch.</desc>
    <defs></defs>
    <g id="Symbols" stroke="none" stroke-width="1" fill="none" fill-rule="evenodd">
        <g id="Global-Property-/-Good-Health" transform="translate(-97.000000, -22.000000)" fill="#F8C105" fill-rule="nonzero">
            <g id="Group">
                <g id="happy-sun" transform="translate(97.000000, 22.000000)">
                    <path d="M20.9999314,6.95834314 C13.2573137,6.95834314 6.95834314,13.2573824 6.95834314,20.9999314 C6.95834314,28.7424804 13.2573824,35.0415196 20.9999314,35.0415196 C28.7424804,35.0415196 35.0415196,28.7424804 35.0415196,20.9999314 C35.0415196,13.2573824 28.742549,6.95834314 20.9999314,6.95834314 Z M20.9999314,33.1060882 C14.3246078,33.1060882 8.89377451,27.6752549 8.89377451,20.9999314 C8.89377451,14.3244706 14.3246078,8.89377451 20.9999314,8.89377451 C27.6753922,8.89377451 33.1060882,14.3246078 33.1060882,20.9999314 C33.1062255,27.6753922 27.6753922,33.1060882 20.9999314,33.1060882 Z" id="Shape"></path>
                    <path d="M13.6845196,18.0871078 C13.150049,18.0871078 12.7168039,18.5203529 12.7168039,19.0548235 L12.7168039,20.2299314 C12.7168039,20.764402 13.150049,21.1976471 13.6845196,21.1976471 C14.2189902,21.1976471 14.6522353,20.764402 14.6522353,20.2299314 L14.6522353,19.0548235 C14.6522353,18.5203529 14.2189902,18.0871078 13.6845196,18.0871078 Z" id="Shape"></path>
                    <path d="M28.3154804,18.0871078 C27.7810098,18.0871078 27.3477647,18.5203529 27.3477647,19.0548235 L27.3477647,20.2299314 C27.3477647,20.764402 27.7810098,21.1976471 28.3154804,21.1976471 C28.849951,21.1976471 29.2831961,20.764402 29.2831961,20.2299314 L29.2831961,19.0548235 C29.2831961,18.5203529 28.8500882,18.0871078 28.3154804,18.0871078 Z" id="Shape"></path>
                    <path d="M23.9122059,20.7046275 C23.3918725,20.5833627 22.8711961,20.906049 22.7493137,21.4262451 C22.5585294,22.2414706 21.8391078,22.8109412 20.9999314,22.8109412 C20.1607549,22.8109412 19.4414706,22.2415392 19.250549,21.4262451 C19.1287353,20.9059118 18.6082647,20.5832255 18.0877941,20.7046275 C17.5674608,20.8264412 17.2443627,21.347049 17.3661765,21.8675196 C17.763049,23.562549 19.2573431,24.7465098 21.0000686,24.7465098 C22.7427941,24.7465098 24.2370882,23.5626863 24.6339608,21.8675196 C24.7556373,21.3471863 24.4325392,20.8265784 23.9122059,20.7046275 Z" id="Shape" transform="translate(21.000043, 22.712789) scale(-1, -1) translate(-21.000043, -22.712789) "></path>
                    <path d="M20.9999314,5.52979412 C21.534402,5.52979412 21.9676471,5.09654902 21.9676471,4.56207843 L21.9676471,0.967715686 C21.9676471,0.433245098 21.534402,0 20.9999314,0 C20.4654608,0 20.0322157,0.433245098 20.0322157,0.967715686 L20.0322157,4.56207843 C20.0322157,5.09654902 20.4654608,5.52979412 20.9999314,5.52979412 Z" id="Shape"></path>
                    <path d="M33.6028137,9.36490196 C33.8505588,9.36490196 34.0981667,9.27033333 34.287098,9.08147059 L37.042902,6.32566667 C37.4208333,5.94787255 37.4208333,5.33502941 37.042902,4.95716667 C36.6651078,4.57937255 36.0522647,4.57937255 35.674402,4.95716667 L32.918598,7.71297059 C32.5406667,8.09076471 32.5406667,8.70360784 32.918598,9.08147059 C33.1074608,9.27033333 33.3550686,9.36490196 33.6028137,9.36490196 Z" id="Shape"></path>
                    <path d="M41.0322843,20.0323529 L37.4379216,20.0323529 C36.903451,20.0323529 36.4702059,20.465598 36.4702059,21.0000686 C36.4702059,21.5345392 36.903451,21.9677843 37.4379216,21.9677843 L41.0322843,21.9677843 C41.5667549,21.9677843 42,21.5345392 42,21.0000686 C42,20.465598 41.5667549,20.0323529 41.0322843,20.0323529 Z" id="Shape"></path>
                    <path d="M34.2871667,32.9185294 C33.9093725,32.5407353 33.2965294,32.5407353 32.9186667,32.9185294 C32.5407353,33.2963235 32.5407353,33.9091667 32.9186667,34.2870294 L35.6744706,37.0428333 C35.8634706,37.2318333 36.1110784,37.3262647 36.3587549,37.3262647 C36.6064314,37.3262647 36.8541078,37.2316961 37.0430392,37.0428333 C37.4209706,36.6650392 37.4209706,36.0521961 37.0430392,35.6743333 L34.2871667,32.9185294 Z" id="Shape"></path>
                    <path d="M20.9999314,36.4702059 C20.4654608,36.4702059 20.0322157,36.903451 20.0322157,37.4379216 L20.0322157,41.0322843 C20.0322157,41.5667549 20.4654608,42 20.9999314,42 C21.534402,42 21.9676471,41.5667549 21.9676471,41.0322843 L21.9676471,37.4379216 C21.9676471,36.903451 21.5345392,36.4702059 20.9999314,36.4702059 Z" id="Shape"></path>
                    <path d="M7.71283333,32.9185294 L4.95702941,35.6743333 C4.57909804,36.0523333 4.57909804,36.6649706 4.95702941,37.0428333 C5.14602941,37.2318333 5.39363725,37.3262647 5.64131373,37.3262647 C5.8889902,37.3262647 6.13666667,37.2316961 6.32559804,37.0428333 L9.08140196,34.2870294 C9.45933333,33.909098 9.45933333,33.2963922 9.08140196,32.9185294 C8.70353922,32.5406667 8.09069608,32.5406667 7.71283333,32.9185294 Z" id="Shape"></path>
                    <path d="M5.52979412,21.0000686 C5.52979412,20.465598 5.09654902,20.0323529 4.56207843,20.0323529 L0.967715686,20.0323529 C0.433245098,20.0323529 0,20.465598 0,21.0000686 C0,21.5345392 0.433245098,21.9677843 0.967715686,21.9677843 L4.56207843,21.9677843 C5.09654902,21.9677843 5.52979412,21.5345392 5.52979412,21.0000686 Z" id="Shape"></path>
                    <path d="M7.71283333,9.08147059 C7.90183333,9.27047059 8.14944118,9.36490196 8.39711765,9.36490196 C8.64472549,9.36490196 8.89247059,9.27033333 9.08140196,9.08147059 C9.45933333,8.70367647 9.45933333,8.09083333 9.08140196,7.71297059 L6.32573529,4.95709804 C5.94807843,4.57930392 5.33523529,4.57930392 4.95723529,4.95709804 C4.57930392,5.33489216 4.57930392,5.94773529 4.95723529,6.32559804 L7.71283333,9.08147059 Z" id="Shape"></path>
                </g>
            </g>
        </g>
    </g>
</svg>