<svg viewBox="0 0 25 25" version="1.1" xmlns="http://www.w3.org/2000/svg" xmlns:xlink="http://www.w3.org/1999/xlink">
    <g id="Ready-for-Review" stroke="none" stroke-width="1" fill="none" fill-rule="evenodd">
        <g id="GV---Audit" transform="translate(-243.000000, -284.000000)" fill="#F8C105" fill-rule="nonzero">
            <g id="Group-4" transform="translate(180.000000, 266.000000)">
                <g id="happy-sun" transform="translate(63.000000, 18.000000)">
                    <path d="M12.5,4.16666667 C7.90494902,4.16666667 4.16666667,7.90498975 4.16666667,12.5 C4.16666667,17.0950102 7.90498975,20.8333333 12.5,20.8333333 C17.0950102,20.8333333 20.8333333,17.0950102 20.8333333,12.5 C20.8333333,7.90498975 17.095051,4.16666667 12.5,4.16666667 Z M12.5,19.684703 C8.53836153,19.684703 5.31529704,16.4616385 5.31529704,12.5 C5.31529704,8.53828008 8.53836153,5.31529704 12.5,5.31529704 C16.4617199,5.31529704 19.684703,8.53836153 19.684703,12.5 C19.6847844,16.4617199 16.4617199,19.684703 12.5,19.684703 Z" id="Shape"></path>
                    <path d="M7.8125,10.4166667 C7.5248431,10.4166667 7.29166667,10.7068395 7.29166667,11.0648097 L7.29166667,11.851857 C7.29166667,12.2098272 7.5248431,12.5 7.8125,12.5 C8.1001569,12.5 8.33333333,12.2098272 8.33333333,11.851857 L8.33333333,11.0648097 C8.33333333,10.7068395 8.1001569,10.4166667 7.8125,10.4166667 Z" id="Shape"></path>
                    <path d="M17.1875,10.4166667 C16.8998431,10.4166667 16.6666667,10.7068395 16.6666667,11.0648097 L16.6666667,11.851857 C16.6666667,12.2098272 16.8998431,12.5 17.1875,12.5 C17.4751569,12.5 17.7083333,12.2098272 17.7083333,11.851857 L17.7083333,11.0648097 C17.7083333,10.7068395 17.4752308,10.4166667 17.1875,10.4166667 Z" id="Shape"></path>
                    <path d="M14.1578532,12.5130914 C13.8616347,12.4509799 13.5652209,12.616259 13.495835,12.8827021 C13.3872242,13.3002585 12.9776676,13.5919399 12.4999363,13.5919399 C12.022205,13.5919399 11.6127265,13.3002937 11.5040376,12.8827021 C11.4346907,12.6161887 11.1383942,12.4509096 10.8420976,12.5130914 C10.5458791,12.575484 10.361944,12.8421381 10.4312908,13.1087218 C10.6572248,13.9769116 11.5079054,14.5833333 12.5000144,14.5833333 C13.4921235,14.5833333 14.3428041,13.9769819 14.568738,13.1087218 C14.6380068,12.8422084 14.4540716,12.5755543 14.1578532,12.5130914 Z" id="Shape"></path>
                    <path d="M11.9791667,3.125 C12.2668236,3.125 12.5,2.88016431 12.5,2.57812403 L12.5,0.54687597 C12.5,0.244835685 12.2668236,0 11.9791667,0 C11.6915098,0 11.4583333,0.244835685 11.4583333,0.54687597 L11.4583333,2.57812403 C11.4583333,2.88016431 11.6915098,3.125 11.9791667,3.125 Z" id="Shape"></path>
                    <path d="M20.4362672,6.25 C20.6013003,6.25 20.766242,6.18700237 20.8920968,6.06118999 L22.7278501,4.22538978 C22.9796055,3.97371929 22.9796055,3.56546907 22.7278501,3.31375287 C22.476186,3.06208238 22.0679462,3.06208238 21.8162365,3.31375287 L19.9804833,5.14955307 C19.7287278,5.40122356 19.7287278,5.80947378 19.9804833,6.06118999 C20.1062924,6.18700237 20.2712341,6.25 20.4362672,6.25 Z" id="Shape"></path>
                    <path d="M24.453124,11.4583333 L22.421876,11.4583333 C22.1198357,11.4583333 21.875,11.6915098 21.875,11.9791667 C21.875,12.2668236 22.1198357,12.5 22.421876,12.5 L24.453124,12.5 C24.7551643,12.5 25,12.2668236 25,11.9791667 C25,11.6915098 24.7551643,11.4583333 24.453124,11.4583333 Z" id="Shape"></path>
                    <path d="M20.8920808,19.9804195 C20.6404204,19.728749 20.2321866,19.728749 19.9804805,19.9804195 C19.7287287,20.23209 19.7287287,20.6403402 19.9804805,20.8920564 L21.8162069,22.7278567 C21.9421056,22.8537605 22.1070449,22.9166667 22.2720298,22.9166667 C22.4370148,22.9166667 22.6019998,22.853669 22.7278528,22.7278567 C22.9796046,22.4761862 22.9796046,22.0679359 22.7278528,21.8162197 L20.8920808,19.9804195 Z" id="Shape"></path>
                    <path d="M11.9791667,21.875 C11.6915098,21.875 11.4583333,22.1198357 11.4583333,22.421876 L11.4583333,24.453124 C11.4583333,24.7551643 11.6915098,25 11.9791667,25 C12.2668236,25 12.5,24.7551643 12.5,24.453124 L12.5,22.421876 C12.5,22.1198357 12.2668974,21.875 11.9791667,21.875 Z" id="Shape"></path>
                    <path d="M5.1495402,19.9804517 L3.31381385,21.8162318 C3.06206205,22.0680367 3.06206205,22.4761453 3.31381385,22.7278587 C3.4397126,22.8537612 3.60465185,22.9166667 3.76963682,22.9166667 C3.93462179,22.9166667 4.09960676,22.8536697 4.2254598,22.7278587 L6.06118615,20.8920787 C6.31293795,20.6403195 6.31293795,20.2321652 6.06118615,19.9804517 C5.80948008,19.7287383 5.40124628,19.7287383 5.1495402,19.9804517 Z" id="Shape"></path>
                    <path d="M3.125,11.9791667 C3.125,11.6915098 2.88016431,11.4583333 2.57812403,11.4583333 L0.54687597,11.4583333 C0.244835685,11.4583333 0,11.6915098 0,11.9791667 C0,12.2668236 0.244835685,12.5 0.54687597,12.5 L2.57812403,12.5 C2.88016431,12.5 3.125,12.2668236 3.125,11.9791667 Z" id="Shape"></path>
                    <path d="M5.1494919,6.06119275 C5.27539618,6.18709473 5.44034268,6.25 5.60533489,6.25 C5.77028138,6.25 5.9353193,6.1870033 6.06117787,6.06119275 C6.31294071,5.80952594 6.31294071,5.40128169 6.06117787,5.14956917 L4.22546238,3.31375011 C3.97388241,3.0620833 3.56563069,3.0620833 3.31382213,3.31375011 C3.06205929,3.56541691 3.06205929,3.97366116 3.31382213,4.22537368 L5.1494919,6.06119275 Z" id="Shape"></path>
                </g>
            </g>
        </g>
    </g>
</svg>